<svg width="130" height="130" viewBox="0 0 130 130" fill="none" xmlns="http://www.w3.org/2000/svg">
<path d="M50 8.66025C59.282 3.30127 70.718 3.30127 80 8.66025L106.292 23.8397C115.574 29.1987 121.292 39.1025 121.292 49.8205V80.1795C121.292 90.8975 115.574 100.801 106.292 106.16L80 121.34C70.718 126.699 59.282 126.699 50 121.34L23.7083 106.16C14.4263 100.801 8.70835 90.8975 8.70835 80.1795V49.8205C8.70835 39.1025 14.4263 29.1987 23.7083 23.8397L50 8.66025Z" fill="#FFBE3D"/>
<path fill-rule="evenodd" clip-rule="evenodd" d="M55.507 18.5424C61.3813 15.1525 68.6187 15.1525 74.493 18.5424L100.507 33.5541C104.185 35.6765 106.979 38.9259 108.554 42.7231C108.663 42.9864 108.766 43.2523 108.864 43.5206C109.605 45.5634 110 47.7477 110 49.9882V80.0117C110 86.7914 106.381 93.0561 100.507 96.4459L74.493 111.458C68.6187 114.847 61.3813 114.847 55.507 111.458L29.493 96.4459C23.6187 93.0561 20 86.7914 20 80.0117V49.9882C20 43.2086 23.6187 36.9439 29.493 33.5541L55.507 18.5424ZM50.7978 55.9885L30.632 44.6129C28.5973 43.4651 28.5973 40.5349 30.632 39.3871L59.1041 23.3259C62.7637 21.2615 67.2363 21.2615 70.8959 23.3259L99.368 39.3871C101.403 40.5349 101.403 43.4651 99.368 44.6129L95.1617 46.9857L95.1618 47L75.1962 58.5272C72.3264 60.184 70 64.2135 70 67.5272V105.672C67.1612 106.607 64.1215 106.724 61.2323 106.024C61.1995 106.016 61.1667 106.008 61.134 106V100.609C61.134 98.3997 59.583 95.7135 57.6699 94.6089L37.9575 83.2279C36.3461 82.2976 35.0398 80.0351 35.0398 78.1744C35.0398 76.3138 36.3461 75.5596 37.9575 76.4899L56.5491 87.2238C59.0812 88.6857 61.134 87.5006 61.134 84.5767C61.134 81.6528 59.0812 78.0974 56.5491 76.6354L37.9575 65.9016C36.3461 64.9712 35.0398 62.7087 35.0398 60.848C35.0398 58.9874 36.3461 58.2332 37.9575 59.1635L56.5491 69.8974C59.0812 71.3593 61.134 70.1742 61.134 67.2503C61.134 64.3264 59.0813 60.771 56.5491 59.309L50.7978 55.9885ZM91.3734 83.6537C94.7214 81.7207 97.4356 77.0197 97.4356 73.1537V68.2187C97.4356 61.5912 92.7828 58.905 87.0433 62.2187L81.1038 65.6478C80.6255 65.924 80.2378 66.5955 80.2378 67.1478V89.0828C80.2378 89.6351 80.6255 89.8589 81.1038 89.5828L91.3734 83.6537Z" fill="#FFFAEF"/>
</svg>
