<svg width="38" height="38" viewBox="0 0 38 38" fill="none" xmlns="http://www.w3.org/2000/svg">
<g clip-path="url(#clip0_6446_12413)">
<path d="M30.5569 11.7704H7.44336V26.1415H30.5569V11.7704Z" fill="white"/>
<path fill-rule="evenodd" clip-rule="evenodd" d="M23.3528 2.54647C20.6587 0.973444 17.3395 0.973444 14.6454 2.54647L7.08612 6.96018C4.39204 8.5332 2.73242 11.4403 2.73242 14.5863V23.4137C2.73242 26.5598 4.39205 29.4668 7.08613 31.0399L14.6454 35.4536C17.3395 37.0266 20.6587 37.0266 23.3528 35.4536L30.912 31.0399C33.6061 29.4668 35.2658 26.5598 35.2658 23.4137V14.5863C35.2658 11.4403 33.6061 8.5332 30.912 6.96018L23.3528 2.54647ZM9.66997 23.001V15.0704C9.65342 14.0498 10.4806 13.2133 11.4898 13.2133H17.2306C17.8427 13.2133 18.3556 13.732 18.3556 14.351C18.3556 14.9868 17.8427 15.4887 17.2306 15.4887H13.3097C12.681 15.4887 12.1847 16.0074 12.1847 16.6265V16.7101C12.1847 17.3459 12.681 17.8645 13.3097 17.8645H16.4861C17.0983 17.8645 17.6111 18.3665 17.6111 19.0023C17.6111 19.6213 17.0983 20.14 16.4861 20.14H13.3097C12.681 20.14 12.1847 20.642 12.1847 21.2777V21.4451C12.1847 22.0808 12.681 22.5828 13.3097 22.5828H17.3134C17.9255 22.5828 18.4383 23.1015 18.4383 23.7205C18.4383 24.3563 17.9255 24.8583 17.3134 24.8583H11.4898C10.4806 24.8583 9.66997 24.0384 9.66997 23.001ZM20.0908 22.382V14.5016C20.0908 13.7822 20.6533 13.2133 21.3481 13.2133C22.043 13.2133 22.6221 13.7822 22.6221 14.5016V21.3782C22.6221 22.0139 23.1349 22.5326 23.7636 22.5326H27.2047C27.85 22.5326 28.3628 23.0513 28.3628 23.7038C28.3628 24.3396 27.85 24.8583 27.2047 24.8583H22.5228C21.1827 24.8583 20.0908 23.754 20.0908 22.382Z" fill="#0066FE"/>
</g>
<defs>
<clipPath id="clip0_6446_12413">
<rect width="32.5333" height="35.2667" fill="white" transform="translate(2.73242 1.3667)"/>
</clipPath>
</defs>
</svg>
