<svg xmlns="http://www.w3.org/2000/svg" width="110" height="95"><rect id="backgroundrect" width="100%" height="100%" x="0" y="0" fill="none" stroke="none"/>
  <defs>
    <style>
      .cls-1 {
        fill: #d5d5d5;
        fill-opacity: 0.53;
      }

      .cls-1, .cls-2 {
        fill-rule: evenodd;
      }

      .cls-2 {
        fill: #d7d7d7;
      }
    </style>
  </defs>
  
  
  
  
<g class="currentLayer" style=""><title>Layer 1</title><path id="Shape_5_copy_10" data-name="Shape 5 copy 10" class="cls-1" d="M33.11737760639187,49.32519664764368 a8.2,8.2 0 0 0 -11.789,0 a8.045,8.045 0 0 0 -2.442,5.9 a8.383000000000001,8.383000000000001 0 0 0 2.442,5.9 l32.225,32.3 l11.79,-11.8 z" transform="rotate(178.275634765625 42.114387512207024,70.12541198730469) " stroke-opacity="1" stroke="#bf81f4"/><path id="Shape_5_copy_9" data-name="Shape 5 copy 9" class="cls-1" d="M95.76023664474485,35.449605393409 l-32.226,-32.3 l-11.789,11.8 l32.225,32.3 a8.336,8.336 0 0 0 14.231,-5.9 A8.386,8.386 0 0 0 95.76023664474485,35.449605393409 z" transform="rotate(176.2799072265625 74.97324371337889,26.4206657409668) " stroke-opacity="1" stroke="#d34aac"/><path id="Shape_5_copy_8" data-name="Shape 5 copy 8" class="cls-2" d="M60.01482754135134,15.085827064514888 l-1.2,-1.7000000000000002 l-42.976,43 a8.4,8.4 0 0 0 -2.448,5.9 a8.2,8.2 0 0 0 2.435,5.9 a8.2,8.2 0 0 0 11.79,0 l32.178,-32.2 C66.6608275413513,29.185827064513433 62.94182754135136,19.38582706451416 60.01482754135134,15.085827064514888 z" stroke-opacity="1" stroke="#491c96" transform="rotate(175.6821746826172 38.538848876953125,42.03587341308593) "/><path id="Shape_5_copy_7" data-name="Shape 5 copy 7" class="cls-2" d="M96.54237820243839,29.176377844811213 a8.257,8.257 0 0 0 -11.789,0 l-32.179,32.2 c-6.87,6.8 -3.151,16.6 -0.2240000000000001,20.9 l1.2,1.7000000000000002 l42.976,-43 A8.358,8.358 0 0 0 96.54237820243839,29.176377844811213 z" stroke-opacity="1" stroke="#56379e" transform="rotate(177.1962127685547 73.82553100585939,55.33893585205079) "/></g></svg>